<svg xmlns="http://www.w3.org/2000/svg" width="510" height="198" viewBox="0 0 510 198" fill="none" data-ember-extension="1">
<path d="M498.183 105.198C506.293 105.198 510 110.295 510 116.088C510 121.881 506.061 126.979 498.183 126.979H485.439V140.418H480.109V105.198H498.183ZM497.951 122.345C502.817 122.345 504.902 119.332 504.902 116.32C504.902 113.076 502.817 110.295 497.951 110.295H485.439V122.345H497.951Z" fill="#F1F0D8"/>
<path d="M442.803 125.125V105.198H448.133V124.893C448.133 131.381 451.84 136.016 459.255 136.016C466.67 136.016 470.377 131.381 470.377 124.893V105.198H475.706V125.125C475.706 133.93 470.145 140.882 459.255 140.882C448.364 140.882 442.803 133.93 442.803 125.125Z" fill="#F1F0D8"/>
<path d="M427.974 140.418C417.315 140.418 409.437 133.003 409.437 122.808C409.437 112.613 417.315 105.198 427.974 105.198H438.633V110.064H427.974C420.327 110.064 414.766 115.161 414.766 122.808C414.766 130.454 420.327 135.552 427.974 135.552H438.633V140.418H427.974Z" fill="#F1F0D8"/>
<path d="M364.484 140.418V105.198H378.851C389.509 105.198 397.388 112.613 397.388 122.808C397.388 133.003 389.509 140.418 378.851 140.418H364.484ZM369.814 135.552H378.851C386.497 135.552 392.058 130.454 392.058 122.808C392.058 115.161 386.497 110.064 378.851 110.064H369.814V135.552Z" fill="#F1F0D8"/>
<path d="M348.033 140.418C340.386 140.418 336.911 135.552 336.911 130.222V105.429H342.24V130.222C342.24 133.235 343.862 135.784 348.496 135.784H361.009V140.65H348.033V140.418Z" fill="#F1F0D8"/>
<path d="M315.593 125.357L333.898 140.186H326.715L308.41 124.893V140.186H303.081V104.966H322.313C329.264 104.966 333.203 109.6 333.203 115.161C333.203 120.722 329.264 125.125 322.313 125.125H315.593V125.357ZM308.178 110.064V120.954H321.618C325.788 120.954 327.642 118.173 327.642 115.393C327.642 112.612 325.788 110.064 321.618 110.064H308.178Z" fill="#F1F0D8"/>
<path d="M261.836 122.808C261.836 112.149 269.714 104.734 280.141 104.734C290.568 104.734 298.446 112.149 298.446 122.808C298.446 133.467 290.568 140.882 280.141 140.882C269.714 140.882 261.836 133.467 261.836 122.808ZM293.348 122.808C293.348 114.93 287.787 109.369 280.141 109.369C272.494 109.369 266.933 114.698 266.933 122.808C266.933 130.918 272.494 136.247 280.141 136.247C287.787 136.247 293.348 130.686 293.348 122.808Z" fill="#F1F0D8"/>
<path d="M255.811 105.198H260.909L252.335 140.418H246.079L238.201 112.149L230.323 140.418H224.066L215.493 105.198H220.591L227.31 133.467L235.189 105.198H241.445L249.091 133.467L255.811 105.198Z" fill="#F1F0D8"/>
<path d="M426.815 95.2338V90.3678H448.133C452.304 90.3678 453.926 88.0507 453.926 85.2701C453.926 82.4896 452.304 80.1724 448.133 80.1724H436.547C429.596 80.1724 425.888 75.5382 425.888 70.2088C425.888 64.8794 429.827 60.2451 436.547 60.2451H457.401V65.1111H436.779C432.608 65.1111 430.986 67.4282 430.986 70.2088C430.986 72.9893 432.608 75.3065 436.779 75.3065H448.364C455.316 75.3065 459.023 79.9407 459.023 85.2701C459.023 90.5995 455.316 95.2338 448.364 95.2338H426.815Z" fill="#F1F0D8"/>
<path d="M415.693 60.0137H421.254L418.473 73.6847H414.071L415.693 60.0137Z" fill="#F1F0D8"/>
<path d="M402.949 60.0137H408.278V95.234H403.412L381.631 68.5871V95.234H376.302V60.0137H381.168L402.949 86.6607V60.0137Z" fill="#F1F0D8"/>
<path d="M371.667 64.8796H349.191V75.075H371.204V79.7093H349.191V84.807C349.191 87.8192 350.813 90.3681 355.448 90.3681H371.899V95.234H355.448C347.801 95.234 344.094 90.3681 344.094 84.807V60.0137H371.899V64.8796H371.667Z" fill="#F1F0D8"/>
<path d="M333.435 60.0137H338.069V95.234H332.74V68.8188L321.849 82.7215H319.3L308.41 68.5871V95.234H303.081V60.0137H307.715L320.691 76.4653L333.435 60.0137Z" fill="#F1F0D8"/>
<path d="M261.836 77.6239C261.836 66.9651 269.714 59.5503 280.141 59.5503C290.568 59.5503 298.446 66.9651 298.446 77.6239C298.446 88.2827 290.568 95.6975 280.141 95.6975C269.714 95.6975 261.836 88.2827 261.836 77.6239ZM293.58 77.6239C293.58 69.7457 288.019 64.1845 280.373 64.1845C272.726 64.1845 267.165 69.5139 267.165 77.6239C267.165 85.7338 272.726 91.0632 280.373 91.0632C288.019 91.0632 293.58 85.5021 293.58 77.6239Z" fill="#F1F0D8"/>
<path d="M256.043 60.0137H260.909L252.567 95.234H246.079L238.432 66.9651L230.554 95.234H224.066L215.725 60.0137H220.591L227.542 88.2826L235.188 60.0137H241.445L249.091 88.2826L256.043 60.0137Z" fill="#F1F0D8"/>
<path d="M312.812 9.73193L297.751 50.05H310.264L311.886 44.7206H326.252L327.874 50.05H340.85L325.788 9.73193H312.812ZM319.3 20.159L324.398 36.8423H314.434L319.3 20.159ZM272.958 9.73193V50.05H285.702V35.4521H294.971L298.214 26.647H285.702V18.537H301.227L304.471 9.73193H272.958ZM251.408 9.73193V50.05H264.153V9.73193H251.408ZM215.956 9.73193V50.05H228.701V35.4521H237.969L241.213 26.647H228.701V18.537H244.225L247.469 9.73193H215.956Z" fill="#F1F0D8"/>
<path d="M116.32 53.7576L98.9415 58.6236L80.6362 53.5259L62.0991 67.6604L60.7089 84.3437L50.9769 101.722L58.6235 123.967L76.4653 130.918L85.7339 145.284H111.917L121.186 130.918L139.26 123.735L146.906 101.49L137.174 84.112L135.784 67.4287L116.32 53.7576ZM111.917 116.783H85.9656L77.8556 91.7585L98.9415 76.4654L120.027 91.7585L111.917 116.783Z" fill="#F1F0D8"/>
<path d="M61.6356 136.247L51.4402 151.54L58.855 158.955L68.5869 162.894L78.7823 147.601L61.6356 136.247Z" fill="#EA5424"/>
<path d="M136.016 136.247L151.54 146.442L158.955 139.028L162.894 129.296L147.601 119.1L136.016 136.247Z" fill="#EA5424"/>
<path d="M136.016 61.8672L146.443 46.3425L139.028 38.9276L129.296 34.9885L119.1 50.2816L136.016 61.8672Z" fill="#EA5424"/>
<path d="M61.8673 61.8675L46.3426 51.4404L38.9278 58.8552L34.9886 68.5872L50.2817 78.7825L61.8673 61.8675Z" fill="#EA5424"/>
<path d="M50.2817 119.1L34.9886 129.296L38.9278 139.028L46.3426 146.442L61.6356 136.247L50.2817 119.1Z" fill="#458DCB"/>
<path d="M119.1 147.601L129.296 162.894L139.028 158.955L146.443 151.54L136.016 136.247L119.1 147.601Z" fill="#458DCB"/>
<path d="M147.601 78.7825L162.894 68.5872L158.955 58.8552L151.54 51.4404L136.016 61.8675L147.601 78.7825Z" fill="#458DCB"/>
<path d="M78.7823 50.2816L68.5869 34.9885L58.855 38.9276L51.4402 46.3425L61.8673 61.8672L78.7823 50.2816Z" fill="#458DCB"/>
<path d="M46.3425 98.9414L28.2689 102.649V113.076L32.208 122.576L50.2816 119.1L46.3425 98.9414Z" fill="#FDC733"/>
<path d="M98.9414 151.54L102.417 169.614H113.076L122.576 165.675L119.1 147.601L98.9414 151.54Z" fill="#FDC733"/>
<path d="M165.675 75.3066L147.601 78.7823L151.54 98.9414L169.614 95.4657V84.8069L165.675 75.3066Z" fill="#FDC733"/>
<path d="M98.9414 46.3426L95.234 28.269H84.8069L75.3066 32.2082L78.7823 50.2818L98.9414 46.3426Z" fill="#FDC733"/>
<path d="M50.2816 78.7823L32.208 75.3066L28.2689 84.8069V95.234L46.3425 98.9414L50.2816 78.7823Z" fill="#F1F0D8"/>
<path d="M78.7824 147.601L75.075 165.675L84.8069 169.614H95.234L98.9414 151.54L78.7824 147.601Z" fill="#F1F0D8"/>
<path d="M147.601 119.1L165.675 122.808L169.614 113.076V102.649L151.54 98.9414L147.601 119.1Z" fill="#F1F0D8"/>
<path d="M119.1 50.2818L122.576 32.2082L113.076 28.269H102.649L98.9414 46.3426L119.1 50.2818Z" fill="#F1F0D8"/>
<path d="M0 84.8069V113.076H28.269V84.8069H0Z" fill="#EF7E8B"/>
<path d="M113.076 169.614H84.8069V197.883H113.076V169.614Z" fill="#EF7E8B"/>
<path d="M169.614 84.8069V113.076H197.883V84.8069H169.614Z" fill="#EF7E8B"/>
<path d="M84.8069 0V28.269H113.076V0H84.8069Z" fill="#EF7E8B"/>
<path d="M28.269 113.076L2.08545 123.735L12.976 149.918L38.9278 139.028L28.269 113.076Z" fill="#009645"/>
<path d="M58.8551 158.955L47.9646 184.907L74.1482 195.797L84.8069 169.614L58.8551 158.955Z" fill="#009645"/>
<path d="M139.028 158.955L113.076 169.614L123.735 195.797L149.687 184.907L139.028 158.955Z" fill="#009645"/>
<path d="M169.614 113.076L158.955 139.028L184.907 149.918L195.566 123.735L169.614 113.076Z" fill="#009645"/>
<path d="M184.907 48.1965L158.955 58.8553L169.614 84.8072L195.797 74.1484L184.907 48.1965Z" fill="#009645"/>
<path d="M123.735 2.31714L113.076 28.269L139.028 38.9278L149.918 12.9759L123.735 2.31714Z" fill="#009645"/>
<path d="M74.1481 2.31714L48.1963 12.9759L58.8551 38.9278L84.8069 28.269L74.1481 2.31714Z" fill="#009645"/>
<path d="M12.976 48.1965L2.08545 74.1484L28.269 84.8072L38.9278 58.8553L12.976 48.1965Z" fill="#009645"/>
<path d="M38.9278 139.028L19.0005 158.955L38.9278 178.882L58.8551 158.955L38.9278 139.028Z" fill="#F1F0D8"/>
<path d="M158.955 139.028L139.028 158.955L158.955 178.882L178.882 158.955L158.955 139.028Z" fill="#F1F0D8"/>
<path d="M158.955 19.0005L139.028 38.9278L158.955 58.8551L178.882 38.9278L158.955 19.0005Z" fill="#F1F0D8"/>
<path d="M58.8551 38.9278L38.9278 19.0005L19.0005 38.9278L38.9278 58.8551L46.3426 51.4403L51.4403 46.3426L58.8551 38.9278Z" fill="#F1F0D8"/>
<path d="M215.514 186.78V166.887H236.513C238.388 166.887 239.812 166.401 240.783 165.43C241.754 164.459 242.24 163.253 242.24 161.813C242.24 160.306 241.754 159.067 240.783 158.096C239.845 157.124 238.439 156.639 236.563 156.639H215.514V151.113H236.965C239.276 151.113 241.268 151.582 242.943 152.52C244.617 153.457 245.89 154.73 246.761 156.337C247.665 157.911 248.117 159.67 248.117 161.612C248.117 163.555 247.665 165.33 246.761 166.937C245.89 168.545 244.617 169.817 242.943 170.755C241.268 171.693 239.276 172.162 236.965 172.162H221.392V181.254H247.213V186.78H215.514ZM271.866 187.383C268.316 187.383 265.101 186.613 262.22 185.072C259.374 183.498 257.13 181.321 255.489 178.541C253.848 175.728 253.027 172.53 253.027 168.946C253.027 165.363 253.848 162.181 255.489 159.402C257.13 156.589 259.374 154.412 262.22 152.871C265.101 151.297 268.316 150.51 271.866 150.51C275.449 150.51 278.664 151.297 281.511 152.871C284.391 154.412 286.635 156.589 288.242 159.402C289.883 162.181 290.704 165.363 290.704 168.946C290.704 172.53 289.883 175.728 288.242 178.541C286.635 181.321 284.391 183.498 281.511 185.072C278.664 186.613 275.449 187.383 271.866 187.383ZM271.866 182.008C274.344 182.008 276.554 181.455 278.497 180.35C280.439 179.245 281.946 177.704 283.018 175.728C284.123 173.752 284.676 171.492 284.676 168.946C284.676 166.401 284.123 164.141 283.018 162.165C281.946 160.189 280.439 158.648 278.497 157.543C276.554 156.438 274.344 155.885 271.866 155.885C269.387 155.885 267.177 156.438 265.235 157.543C263.292 158.648 261.768 160.189 260.663 162.165C259.591 164.141 259.056 166.401 259.056 168.946C259.056 171.492 259.591 173.752 260.663 175.728C261.768 177.704 263.292 179.245 265.235 180.35C267.177 181.455 269.387 182.008 271.866 182.008ZM297.147 186.78V166.887H318.145C320.021 166.887 321.444 166.401 322.415 165.43C323.387 164.459 323.872 163.253 323.872 161.813C323.872 160.306 323.387 159.067 322.415 158.096C321.478 157.124 320.071 156.639 318.196 156.639H297.147V151.113H318.597C320.908 151.113 322.901 151.582 324.575 152.52C326.25 153.457 327.523 154.73 328.393 156.337C329.298 157.911 329.75 159.67 329.75 161.612C329.75 163.555 329.298 165.33 328.393 166.937C327.523 168.545 326.25 169.817 324.575 170.755C322.901 171.693 320.908 172.162 318.597 172.162H303.024V181.254H328.845V186.78H297.147ZM361.134 168.796C363.076 169.633 364.516 170.772 365.454 172.212C366.392 173.652 366.861 175.276 366.861 177.085C366.861 178.826 366.425 180.434 365.554 181.907C364.684 183.381 363.411 184.57 361.737 185.474C360.096 186.345 358.153 186.78 355.909 186.78H335.062V181.304H355.206C357.081 181.304 358.505 180.852 359.476 179.948C360.447 179.01 360.933 177.805 360.933 176.331C360.933 174.958 360.414 173.803 359.376 172.865C358.337 171.927 356.864 171.458 354.955 171.458H335.062V166.334H354.955C356.763 166.334 358.153 165.882 359.124 164.978C360.129 164.04 360.631 162.885 360.631 161.512C360.631 160.072 360.129 158.899 359.124 157.995C358.153 157.057 356.73 156.589 354.854 156.589H335.062V151.113H355.558C357.802 151.113 359.744 151.548 361.385 152.419C363.026 153.29 364.282 154.462 365.153 155.936C366.023 157.409 366.459 159.033 366.459 160.808C366.459 162.516 366.007 164.074 365.102 165.48C364.232 166.853 362.909 167.959 361.134 168.796Z" fill="#F1F0D8"/>
<path d="M383.423 150.857V152.894H378.572V164.002H376.351V152.894H371.519V150.857H383.423ZM392 156.911L396.739 150.857H398.646V164.002H396.499V154.375L392.222 159.837H391.778L387.501 154.356V164.002H385.353V150.857H387.279L392 156.911Z" fill="#F1F0D8"/>
</svg>