<?xml version="1.0" encoding="UTF-8" standalone="no"?>
<svg
   xmlns:dc="http://purl.org/dc/elements/1.1/"
   xmlns:cc="http://creativecommons.org/ns#"
   xmlns:rdf="http://www.w3.org/1999/02/22-rdf-syntax-ns#"
   xmlns:svg="http://www.w3.org/2000/svg"
   xmlns="http://www.w3.org/2000/svg"
   xmlns:sodipodi="http://sodipodi.sourceforge.net/DTD/sodipodi-0.dtd"
   xmlns:inkscape="http://www.inkscape.org/namespaces/inkscape"
   width="100"
   height="33"
   viewBox="0 0 75.000003 24.75"
   version="1.1"
   id="svg18"
>
  <title
     id="title821">UEFA Euro 2020 logo</title>
  <defs
     id="defs22">
    <pattern
       y="0"
       x="0"
       height="6"
       width="6"
       patternUnits="userSpaceOnUse"
       id="EMFhbasepattern" />
  </defs>
  <g
     id="e3e3e3ff"
     transform="translate(0,-393.24998)" />
  <path
     d="m 7.8074631,15.776604 c 0.5993602,0 1.0877613,-0.495705 1.0877613,-1.094369 0,-0.614421 -0.4997455,-1.091813 -1.1002204,-1.091813 H 1.3170414 c -0.60158956,0 -1.08887597,0.490212 -1.08887597,1.091813 v 8.424523 c 0,0.61845 0.50522611,1.08924 1.09840907,1.08924 h 6.4808886 c 0.5993602,0 1.0877613,-0.48581 1.0877613,-1.08924 0,-0.61332 -0.4997455,-1.09071 -1.1002204,-1.09071 H 2.405186 v -2.033775 l 4.5925519,-0.007 c 0.60051,0 1.0848587,-0.485091 1.0848587,-1.087784 0,-0.609649 -0.5023232,-1.082281 -1.0943569,-1.082281 H 2.405186 v -2.02901 z m 9.7529749,-2.186182 c -0.605608,0 -1.086299,0.493509 -1.086299,1.091813 v 5.048336 c 0,1.428871 -1.050779,2.481847 -2.231606,2.481847 -1.180118,0 -2.225382,-1.052976 -2.225382,-2.481847 v -5.048336 c 0,-0.588411 -0.471924,-1.079354 -1.068358,-1.091813 -0.61809,-0.0034 -1.1031824,0.493509 -1.1031824,1.091813 v 5.048336 c 0,2.493577 1.9308234,4.572047 4.4152454,4.585607 2.454744,-0.0136 4.379691,-2.09717 4.379691,-4.585607 v -5.048336 c 0,-0.588411 -0.46714,-1.091813 -1.080109,-1.091813 m 9.943553,3.759418 c 0,-0.832414 -0.670121,-1.510222 -1.507284,-1.511684 h -3.650248 v 3.02079 h 3.650248 c 0.837163,-0.0034 1.507284,-0.678899 1.507284,-1.509106 m 13.938508,1.606201 c 0,3.132537 -2.301588,5.676327 -5.287962,5.676327 h -4.960379 c -2.269007,0 -3.827578,-0.60709 -4.794823,-1.71613 -0.143994,-0.15938 -0.283193,-0.33267 -0.408874,-0.50927 -0.355393,-0.500839 -0.674487,-0.917783 -1.013019,-1.374288 h -2.630983 v 2.146258 c 0,0.59391 -0.482154,1.07459 -1.080468,1.07459 -0.601207,0 -1.079704,-0.48765 -1.079704,-1.07459 l -0.0093,-8.432225 c 0,-0.599023 0.487287,-1.085578 1.081897,-1.085578 h 4.739855 c 2.037428,0 3.684688,1.651266 3.684688,3.688705 0,1.523771 -0.924772,2.832104 -2.247747,3.392298 l 0.421694,0.556525 c 0.186143,0.248417 0.405971,0.465307 0.664988,0.632384 0.154258,0.09556 0.380298,0.223111 0.634183,0.326071 0.597932,0.23338 1.384213,0.38507 2.037102,0.38507 h 4.96038 c 1.627833,0 2.993318,-1.673626 2.993318,-3.686147 0,-2.005926 -1.362581,-3.46191 -2.993318,-3.46191 -1.629645,0 -2.99478,1.455984 -2.99478,3.46191 0,1.136506 0.473747,2.093128 1.181209,2.712668 l 0.226807,0.199312 h -2.930685 c -0.489481,-0.852932 -0.767192,-1.843982 -0.767192,-2.91198 0,-3.132539 2.301204,-5.671907 5.284641,-5.671907 2.986374,0 5.287963,2.539368 5.287963,5.671907 m -7.019463,-17.0069406 -2.847502,0.57998 c -0.198219,0.03553 -0.313613,0.197476 -0.270766,0.411812 l 0.597931,2.921872 c 0.199694,0.997285 0.924005,1.223337 1.727843,1.064689 l 1.731535,-0.356483 -0.174044,-0.850365 -1.679481,0.34147 c -0.437833,0.09045 -0.630165,0.0047 -0.730558,-0.478857 l -0.08465,-0.438564 2.092756,-0.427198 -0.174776,-0.834967 -2.093139,0.427197 -0.20514,-1.04235 2.278493,-0.46714 z m 5.660201,1.347915 1.659684,0.439645 0.217634,-0.843027 -1.706966,-0.444428 c -0.788452,-0.205895 -1.52816,-0.01719 -1.786852,0.962114 l -0.760596,2.8867 c -0.05097,0.213234 0.05574,0.369675 0.250981,0.426095 l 0.556166,0.143994 0.492407,-1.867437 2.056853,0.537483 0.217634,-0.823623 -2.061638,-0.540781 0.118716,-0.43709 c 0.12055,-0.469324 0.317317,-0.548095 0.745977,-0.439645 m -3.928701,5.115741 c 3.064008,0 5.810408,1.348276 7.689177,3.4831696 l 0.540071,-0.476661 C 42.380264,9.1363594 39.433846,7.6898974 36.154027,7.6898974 c -3.277996,0 -6.218911,1.446462 -8.225196,3.7293676 l 0.543706,0.476661 c 1.871082,-2.1348936 4.619653,-3.4831696 7.68149,-3.4831696 m 0,-7.61262096 c 4.99814,0 9.519985,2.05612096 12.756576,5.37367696 L 49.42538,5.6685864 C 46.056513,2.2205874 41.356958,0.07837844 36.154027,0.07837844 c -5.20184,0 -9.899197,2.14220896 -13.269504,5.59020796 l 0.514039,0.505226 c 3.23695,-3.317556 7.761343,-5.37367696 12.755465,-5.37367696 m 9.020978,9.67387556 1.338748,-4.6416576 c 0.05167,-0.169631 0.06849,-0.334142 -0.148369,-0.499373 l -0.178059,-0.138861 c -0.216545,-0.160842 -0.37336,-0.108103 -0.523194,-0.01208 l -4.043732,2.628033 0.855126,0.479587 2.917461,-1.891982 -0.458329,1.590456 -0.379566,-0.291273 -0.771942,0.504506 0.893967,0.686957 -0.259784,0.892503 z M 28.472548,8.3904044 c -0.248055,0.201877 -0.548838,0.307031 -0.82216,0.278083 -0.329011,-0.04064 -0.538191,-0.176587 -0.849611,-0.566778 l -1.610602,-1.982111 -0.716287,0.587668 1.758264,2.163098 c 0.371126,0.451384 0.789916,0.692089 1.279014,0.736062 0.552496,0.05133 1.045263,-0.111703 1.535476,-0.508907 0.484361,-0.395684 0.749996,-0.843399 0.814102,-1.398101 0.05202,-0.487646 -0.09997,-0.945985 -0.462728,-1.394803 l -1.763014,-2.171888 -0.71371,0.581804 1.608756,1.979173 c 0.317666,0.388368 0.405983,0.618821 0.378487,0.954426 -0.02346,0.26819 -0.190138,0.540769 -0.435987,0.742274 M 73.399741,18.913171 c 0,-2.096054 -1.146033,-4.231667 -3.064026,-4.22837 -1.971118,0.0034 -3.034716,2.156131 -3.034716,4.18038 0,2.095682 1.145662,4.231687 3.063656,4.228027 1.971488,-0.003 3.035086,-2.15616 3.035086,-4.180037 m 1.498853,-0.06085 c 0,3.210207 -1.961959,5.612577 -4.562516,5.616607 -2.627298,0.005 -4.533939,-2.32652 -4.533939,-5.543338 0,-3.209848 1.961596,-5.611817 4.562516,-5.616219 2.626937,-0.0047 4.533939,2.326135 4.533939,5.54295 m -17.946697,0.08941 c 0,-2.096054 -1.1464,-4.231679 -3.064389,-4.228382 -1.971122,0.0034 -3.034705,2.156143 -3.034705,4.180381 0,2.095682 1.146003,4.231678 3.064382,4.228008 1.971113,-0.003 3.034712,-2.156141 3.034712,-4.180007 m 1.498489,-0.06085 c 0,3.210207 -1.961226,5.612577 -4.562515,5.616957 -2.627303,0.005 -4.533587,-2.32687 -4.533587,-5.543688 0,-3.209477 1.961241,-5.611458 4.562163,-5.616218 2.627303,-0.0047 4.533939,2.326506 4.533939,5.542949 m -9.322524,3.947737 -5.482495,0.009 c 0.131547,-0.38616 0.38766,-0.69136 0.81632,-0.968337 0,0 2.22574,-1.473216 2.985259,-1.935944 1.389308,-0.845975 2.429091,-2.658454 1.554912,-4.713473 -0.509296,-1.197687 -1.706241,-1.88721 -3.254558,-1.887582 -2.114009,-3.02e-4 -3.588315,1.399575 -3.659401,3.488662 0,0.412172 0.330834,0.754013 0.74707,0.754013 0.405216,0 0.740428,-0.341469 0.747406,-0.745583 0.05574,-1.952803 1.666298,-2.099723 2.161995,-2.099723 1.329221,3.02e-4 2.15542,0.83901 2.15284,2.192777 -0.0029,0.874181 -0.669358,1.485303 -1.231414,1.837398 l -2.990739,1.936303 c -1.10685,0.714441 -1.596296,1.680589 -1.623443,3.212789 l -0.0081,0.3085 h 7.081723 c 0.388362,0 0.696502,-0.30814 0.697235,-0.69759 0,-0.38323 -0.306294,-0.69136 -0.694655,-0.69173 m 17.137728,0.69173 c -7.32e-4,0.38945 -0.309224,0.69759 -0.697589,0.69759 H 58.48659 l 0.0077,-0.3085 c 0.02748,-1.5322 0.517326,-2.498348 1.623791,-3.212789 l 2.990751,-1.936303 c 0.562024,-0.352095 1.229566,-0.963217 1.231032,-1.837398 0.0029,-1.353767 -0.823253,-2.192405 -2.152476,-2.192777 -0.495711,0 -2.106312,0.14692 -2.162368,2.099723 -0.0066,0.404114 -0.341465,0.745583 -0.747046,0.745583 -0.416205,0 -0.747779,-0.341841 -0.747046,-0.754013 0.07107,-2.089087 1.545386,-3.489022 3.659026,-3.488662 1.548682,3.02e-4 2.745276,0.689895 3.254909,1.887582 0.874179,2.055019 -0.165604,3.867498 -1.554912,4.713473 -0.759871,0.462728 -2.985621,1.935944 -2.985621,1.935944 -0.428298,0.276977 -0.684762,0.582177 -0.815926,0.968337 l 5.482493,-0.009 c 0.388362,3e-4 0.695388,0.3085 0.694654,0.69172"
     style="fill:#0084a4;fill-opacity:1;fill-rule:nonzero;stroke:none;stroke-width:0.36637878"
     id="path332-7"
 />
</svg>
