<svg width="300" height="80" viewBox="0 0 300 80" xmlns="http://www.w3.org/2000/svg" xml:space="preserve" version="1.0">
 <g id="Layer_1">
  <title>Layer 1</title>
  <g stroke="null" id="svg_1">
   <path stroke="null" id="svg_1" fill="#eeeeee" d="m190.2852,44.65248c0,-5.62962 -3.90712,-9.0746 -10.96514,-9.0746c-2.89883,-0.08402 -5.79766,0.50414 -8.44442,1.63847c-1.0503,1.72249 -1.72249,3.61304 -2.05859,5.5876c2.85682,-1.21835 5.96571,-1.84853 9.11661,-1.84853c3.10889,0 5.5876,1.34439 5.5876,4.95742c0,3.61304 -2.4367,6.6379 -15.7125,14.45214c0,1.51243 0.12604,3.02487 0.42012,4.5373l21.84626,0c0.63018,-1.72249 1.00829,-3.52901 1.21835,-5.37754l-18.61134,0c9.28466,-3.19292 17.60305,-6.51187 17.60305,-14.87226l0,0zm55.74999,0c0,-5.62962 -3.90712,-9.0746 -10.92313,-9.0746c-2.89883,-0.08402 -5.83967,0.50414 -8.48643,1.63847c-1.0503,1.72249 -1.72249,3.61304 -2.05859,5.5876c2.85682,-1.21835 5.96571,-1.84853 9.11661,-1.84853c3.10889,0 5.5876,1.34439 5.5876,4.95742c0,3.61304 -2.4367,6.6379 -15.71251,14.45214c0,1.51243 0.12604,3.02487 0.37811,4.5373l21.93029,0c0.63018,-1.72249 1.00829,-3.52901 1.21835,-5.37754l-18.61134,0c9.24265,-3.19292 17.56104,-6.51187 17.56104,-14.87226l0,0zm-37.89487,2.18463c-1.42841,1.00829 -2.68877,2.22664 -3.78108,3.57102c1.09231,1.3864 2.35267,2.60475 3.78108,3.61304c1.42841,-1.00829 2.68877,-2.22664 3.78108,-3.61304c-1.09231,-1.34438 -2.39469,-2.56273 -3.78108,-3.57102l0,0zm0,-11.25923c-8.27637,0 -14.45214,4.95742 -14.45214,12.98172c-0.29408,2.05859 -0.12604,4.2012 0.46213,6.17577c0.58817,2.01658 1.59646,3.86511 2.98285,5.46157c1.3864,1.59646 3.06688,2.85682 4.95742,3.73907c1.89054,0.88225 3.99115,1.30237 6.04974,1.30237c2.1006,0 4.15919,-0.46213 6.04974,-1.30237c1.89054,-0.88225 3.61304,-2.14261 4.99943,-3.73907c1.3864,-1.55445 2.39469,-3.44499 2.98285,-5.46157c0.58817,-2.01658 0.75622,-4.11718 0.46213,-6.17577c-0.08403,-8.10833 -6.30181,-12.98172 -14.57818,-12.98172l0.08402,0zm0,27.22381c-1.84853,0 -7.64619,-3.78108 -7.64619,-13.82196c-0.08402,-1.0503 0.08402,-2.1006 0.42012,-3.06688c0.3361,-1.00829 0.92426,-1.89054 1.63847,-2.64676c0.7142,-0.75622 1.59646,-1.3864 2.52072,-1.80652c0.96628,-0.42012 2.01658,-0.63018 3.06688,-0.63018c1.0503,0 2.1006,0.21006 3.06688,0.63018c0.96628,0.42012 1.84853,1.00829 2.56273,1.80652c0.7142,0.75622 1.26036,1.68048 1.63847,2.64676c0.3361,1.00829 0.50414,2.01658 0.42012,3.06688c-0.25207,10.04088 -5.9237,13.82196 -7.77223,13.82196l0.08402,0zm-154.73037,2.47871l-10.88112,-5.79766c6.17577,-2.22664 10.71307,-6.6379 10.71307,-12.8977c0,-8.40241 -6.30181,-12.68764 -14.49416,-12.68764c-1.89054,-0.12604 -3.8231,0.16805 -5.5876,0.84024c-1.80652,0.67219 -3.44499,1.68048 -4.78937,3.02487c-1.3864,1.30237 -2.47871,2.89883 -3.19292,4.66334c-0.7142,1.76451 -1.09231,3.65505 -1.0503,5.54559c0,7.81424 5.96571,12.43557 12.43557,15.88055l21.00602,10.96514c-0.08403,-4.83139 -0.7142,-7.60418 -4.24322,-9.53673l0.08402,0zm-12.68764,-6.6379l-0.3361,-0.21006c-3.94913,-2.1006 -9.28466,-5.29352 -9.28466,-11.1752c-0.08402,-1.0503 0.04201,-2.1006 0.37811,-3.06688c0.3361,-1.00829 0.88225,-1.89054 1.63847,-2.64676c0.7142,-0.75622 1.59646,-1.34439 2.56274,-1.72249c0.96628,-0.37811 2.01658,-0.54616 3.06688,-0.46213c4.66334,0 7.43613,3.31895 7.43613,8.94857c-0.12604,2.01658 -0.7142,3.94913 -1.68048,5.71364c-0.96628,1.76451 -2.26865,3.27694 -3.86511,4.49529l0.08402,0.12604zm231.02425,-13.90599c0,-5.62961 -3.90712,-9.0746 -10.96514,-9.0746c-2.89883,-0.08403 -5.79766,0.50414 -8.48643,1.63847c-1.0503,1.72249 -1.72249,3.61304 -2.05859,5.5876c2.85682,-1.26036 5.96571,-1.89054 9.11661,-1.84853c3.06688,0 5.5876,1.34438 5.5876,4.95742c0,3.61304 -2.47871,6.6379 -15.7125,14.45214c0,1.51243 0.12604,3.02487 0.42012,4.5373l21.88828,0c0.58817,-1.72249 1.00829,-3.52901 1.21835,-5.37754l-18.73737,0c9.28466,-3.27694 17.60305,-6.59589 17.60305,-14.95629l0.12604,0.08402zm-215.56381,10.41899c0,6.84796 2.47871,10.1249 5.79766,10.1249c4.03316,0 7.26808,-3.57102 10.33496,-11.21722l0,10.7971l6.6379,0l0,-22.72852c-2.98285,-0.25207 -5.71364,-0.42012 -8.65448,-0.42012c-8.23436,0.04201 -14.11605,3.44499 -14.11605,13.44385l0,0zm9.32667,4.36925c-1.72249,0 -2.4367,-2.31066 -2.4367,-8.65448c0,-3.31895 1.59646,-4.15919 6.17577,-4.15919l3.10889,0c-1.51243,4.5373 -3.487,12.81367 -6.84796,12.81367l0,0zm91.08212,-6.88998l0,-2.22664c0,-2.77279 -0.21006,-5.50358 -0.63018,-8.23436l-6.42784,0c0.21006,2.89883 0.42012,5.37754 0.42012,8.23436l0,14.45214l6.6379,0c0,-8.10832 2.60475,-17.30896 9.49472,-16.30067c-0.04201,-2.26865 -0.25207,-4.57931 -0.63018,-6.80595c-5.04145,0.42012 -7.47814,4.8734 -8.86454,10.88112l0,0zm-34.74396,2.52072c-0.04201,1.47042 0.12604,2.89883 0.46213,4.32724l-24.24095,0c-3.31895,0 -5.29352,-0.7142 -5.29352,-3.69706l0,-8.27637l7.64619,0c0.58817,-1.72249 1.00829,-3.52901 1.26036,-5.37754l-8.94857,0c0,-2.52072 0.25207,-4.83139 0.42012,-7.43613c-2.64676,0.79823 -5.08346,2.31066 -7.01601,4.32724l0,3.10889l-3.90712,0c-0.3361,2.26865 -0.3361,3.94913 -0.42012,5.37754l4.32724,0l0,8.65448c-0.12604,1.17634 0,2.35267 0.42012,3.487c0.42012,1.09231 1.0503,2.1006 1.84853,2.94084c0.84024,0.84024 1.84853,1.47042 2.94084,1.84853c1.09231,0.37811 2.31066,0.54616 3.487,0.42012l33.02147,0c4.03316,0 7.14205,-3.31895 10.1249,-10.7971l0,10.7971l6.6379,0l0,-22.72852c-2.98286,-0.25207 -5.71364,-0.42012 -8.69649,-0.42012c-8.19235,0.04201 -14.07404,3.44499 -14.07404,13.44385l0,0zm9.32667,4.36925c-1.72249,0 -2.4367,-2.31066 -2.4367,-8.65448c0,-3.31895 1.59646,-4.15919 6.17577,-4.15919l3.10889,0c-1.51243,4.5373 -3.487,12.81367 -6.84797,12.81367l0,0zm0,0" class="st0"/>
   <path stroke="null" id="svg_2" fill="#eeeeee" d="m245.95116,27.6376l-2.81481,0.58817c-1.21835,0.21006 -2.47871,0.29408 -3.73907,0.25207c-1.51243,0 -2.98285,-0.21006 -4.45328,-0.58817c-1.47042,-0.37811 -2.81481,-1.00829 -4.03316,-1.89054c-1.26036,-0.92427 -2.26865,-2.1006 -2.98286,-3.487c-0.79823,-1.63847 -1.17634,-3.44499 -1.13432,-5.25151c-0.04201,-1.72249 0.29408,-3.44499 0.92427,-5.04144c0.58817,-1.3864 1.51243,-2.60475 2.64676,-3.57102c1.17634,-0.96628 2.52072,-1.72249 3.99115,-2.1006c1.63847,-0.50414 3.31895,-0.7142 4.99943,-0.7142c1.13433,0 2.22664,0.12604 3.31895,0.3361c1.0503,0.25207 2.14261,0.50414 3.31895,0.84024l-0.46213,4.74736c-0.88225,-0.50414 -1.84853,-0.88225 -2.81481,-1.17634c-0.92427,-0.25207 -1.93255,-0.37811 -2.89883,-0.37811c-0.96628,0 -1.93255,0.16805 -2.85682,0.54616c-0.79823,0.3361 -1.55445,0.84024 -2.14261,1.47042c-0.58817,0.67219 -1.0503,1.42841 -1.3864,2.26865c-0.3361,0.92427 -0.50414,1.89054 -0.50414,2.85682c0,1.00829 0.16805,1.97457 0.54616,2.89883c0.3361,0.84024 0.84024,1.59646 1.51243,2.18463c0.67219,0.63018 1.47042,1.09231 2.31066,1.34439c0.96628,0.3361 1.97457,0.50414 2.98285,0.46213c0.96628,0 1.93255,-0.08403 2.85682,-0.29408c0.88225,-0.21006 1.76451,-0.50414 2.64676,-0.84024l0.16805,4.5373zm0,0" class="st0"/>
   <path stroke="null" id="svg_3" fill="#eeeeee" d="m269.68797,19.78135c0,1.34438 -0.21006,2.64676 -0.7142,3.86511c-0.42012,1.0503 -1.09231,1.97457 -1.97457,2.73078c-0.92427,0.7142 -1.93255,1.26036 -3.06688,1.59646c-1.26036,0.3361 -2.60475,0.50414 -3.90712,0.50414c-1.34438,0 -2.64676,-0.16805 -3.94913,-0.50414c-1.09231,-0.3361 -2.14261,-0.88225 -3.06688,-1.59646c-0.84024,-0.75622 -1.51243,-1.68048 -1.93255,-2.73078c-0.50414,-1.21835 -0.7142,-2.56273 -0.7142,-3.86511l0,-13.65392l5.88169,0l0,12.64562c0,0.67219 0.04201,1.3864 0.16805,2.05859c0.08403,0.63018 0.29408,1.21835 0.58817,1.72249c0.29408,0.46213 0.67219,0.88225 1.17634,1.17634c0.58817,0.29408 1.21835,0.42012 1.84853,0.42012c0.67219,0.08403 1.3864,0 1.97457,-0.25207c0.46213,-0.29408 0.84024,-0.67219 1.13433,-1.17634c0.29408,-0.50414 0.50414,-1.09231 0.58817,-1.72249c0.08403,-0.67219 0.08403,-1.3864 0,-2.05859l0,-12.64563l5.88169,0l0.08403,13.48587zm0,0" class="st0"/>
   <path stroke="null" id="svg_4" fill="#eeeeee" d="m275.31758,6.16944l6.974,0c2.60475,-0.21006 5.20949,0.42012 7.47814,1.72249c0.75622,0.67219 1.34439,1.51243 1.72249,2.4367c0.42012,0.92427 0.63018,1.93255 0.63018,2.89883c0,1.00829 -0.21006,2.01658 -0.63018,2.89883c-0.42012,0.92426 -1.00829,1.72249 -1.72249,2.4367c-1.84853,1.34438 -4.11718,2.01658 -6.38583,1.89054l-2.31066,0l0,7.64619l-5.71364,0l0,-21.93029l-0.04201,0zm5.83967,9.95686l1.51243,0c0.46213,0.04201 0.92427,0.04201 1.3864,0c0.42012,-0.08403 0.79823,-0.25207 1.13432,-0.50415c0.3361,-0.25207 0.63018,-0.58817 0.75622,-0.96628c0.21006,-0.46213 0.3361,-0.92427 0.29409,-1.42841c0.04201,-0.46213 -0.08403,-0.96628 -0.29409,-1.3864c-0.16805,-0.37811 -0.42012,-0.7142 -0.75622,-0.92427c-0.3361,-0.25207 -0.75622,-0.42012 -1.13432,-0.50414c-0.46213,-0.04201 -0.92427,-0.04201 -1.3864,0l-1.51243,0l0,5.71364zm0,0" class="st0"/>
   <path stroke="null" id="svg_5" fill="#eeeeee" d="m91.38884,6.16944l5.96571,0l2.81481,16.84683l2.98286,-16.84683l7.39412,0l3.10889,16.84683l2.89883,-16.84683l5.67163,0l-4.91541,21.9723l-7.47814,0l-3.10889,-16.88884l-2.89883,16.88884l-7.56217,0l-4.8734,-21.9723zm0,0" class="st0"/>
   <path stroke="null" id="svg_6" fill="#eeeeee" d="m125.25055,17.26062c-0.04201,-1.59646 0.21006,-3.23493 0.7142,-4.74736c0.42012,-1.34439 1.13433,-2.56274 2.1006,-3.57102c0.92427,-1.00829 2.05859,-1.76451 3.31895,-2.26865c3.06688,-1.0503 6.42784,-1.0503 9.53673,0c1.26036,0.50414 2.39469,1.26036 3.31895,2.26865c0.96628,1.00829 1.68048,2.22664 2.1006,3.57102c0.96628,3.06688 0.96628,6.38583 0,9.45271c-0.42012,1.34439 -1.13433,2.56274 -2.1006,3.61304c-0.96628,1.00829 -2.18463,1.80652 -3.487,2.26865c-3.06688,1.00829 -6.42784,1.00829 -9.49472,0c-1.26036,-0.50414 -2.39469,-1.30237 -3.31895,-2.31066c-1.00829,-1.00829 -1.72249,-2.22664 -2.14261,-3.57102c-0.42012,-1.55445 -0.63018,-3.1509 -0.54616,-4.70535l0,0zm6.04974,0c0,0.88225 0.08402,1.76451 0.25207,2.60475c0.16805,0.79823 0.46213,1.55445 0.88225,2.26865c0.37811,0.63018 0.88225,1.17634 1.51243,1.55445c0.7142,0.37811 1.47042,0.54616 2.26865,0.54616c0.79823,0 1.55445,-0.21006 2.26865,-0.54616c0.63018,-0.37811 1.13433,-0.92427 1.51243,-1.55445c0.42012,-0.7142 0.7142,-1.47042 0.88225,-2.26865c0.21006,-0.84024 0.29409,-1.72249 0.29409,-2.60475c0,-0.92427 -0.08403,-1.80652 -0.29409,-2.68877c-0.16805,-0.79823 -0.46213,-1.55445 -0.88225,-2.26865c-0.37811,-0.63018 -0.92427,-1.13433 -1.51243,-1.51243c-0.7142,-0.37811 -1.47042,-0.54616 -2.26865,-0.54616c-0.79823,0 -1.59646,0.16805 -2.26865,0.54616c-0.63018,0.37811 -1.13433,0.92426 -1.51243,1.51243c-0.42012,0.7142 -0.7142,1.47042 -0.88225,2.26865c-0.16805,0.88225 -0.25207,1.76451 -0.25207,2.68877l0,0zm0,0" class="st0"/>
   <path stroke="null" id="svg_7" fill="#eeeeee" d="m152.13826,6.16944l10.461,0c0.92427,0 1.84853,0.08402 2.73078,0.3361c0.84024,0.21006 1.59646,0.54616 2.26865,1.0503c0.63018,0.46213 1.17634,1.0503 1.51243,1.72249c0.37811,0.75622 0.58817,1.59646 0.54616,2.4367c0.04201,1.30237 -0.29408,2.56274 -1.0503,3.61304c-0.84024,1.0503 -2.01658,1.72249 -3.31895,1.93255c0.42012,0.08403 0.84024,0.29408 1.13433,0.58817c0.29408,0.29408 0.54616,0.63018 0.7142,1.00829c0.21006,0.46213 0.42012,0.92427 0.58817,1.3864c0.16805,0.54616 0.37811,1.17634 0.67219,1.80652l2.18463,5.96571l-6.13376,0l-1.26036,-3.99114c-0.21006,-0.79823 -0.50414,-1.55445 -0.84024,-2.31066c-0.21006,-0.50414 -0.50414,-1.00829 -0.84024,-1.42841c-0.29408,-0.3361 -0.63018,-0.63018 -1.0503,-0.75622c-0.46213,-0.12604 -0.92427,-0.21006 -1.3864,-0.21006l-1.21835,0l0,8.69649l-5.71364,0l0,-21.84626zm5.83967,9.11661l3.02487,0c0.46213,-0.04201 0.96628,-0.12604 1.3864,-0.3361c0.37811,-0.12604 0.7142,-0.42012 1.00829,-0.7142c0.3361,-0.42012 0.46213,-0.92427 0.42012,-1.47042c0.04201,-0.42012 -0.12604,-0.88225 -0.37811,-1.21835c-0.25207,-0.42012 -0.58817,-0.7142 -1.00829,-0.92427c-0.42012,-0.16805 -0.88225,-0.29408 -1.34439,-0.3361c-0.54616,-0.04201 -1.09231,-0.04201 -1.63847,0l-1.55445,0l0.08402,4.99943zm0,0" class="st0"/>
   <path stroke="null" id="svg_8" fill="#eeeeee" d="m175.87506,6.16944l5.83967,0l0,17.72908l9.11661,0l0,4.36925l-14.95629,0l0,-22.09834zm0,0" class="st0"/>
   <path stroke="null" id="svg_9" fill="#eeeeee" d="m195.62073,6.16944l8.0243,0c1.76451,0 3.52901,0.16805 5.25151,0.50414c1.47042,0.29408 2.89883,0.88225 4.11718,1.76451c1.17634,0.84024 2.1006,1.97457 2.68877,3.31895c0.67219,1.68048 1.00829,3.487 0.96628,5.29352c0.04201,1.80652 -0.29408,3.57102 -1.00829,5.20949c-0.63018,1.30237 -1.51243,2.4367 -2.68877,3.31895c-1.26036,0.88225 -2.64676,1.51243 -4.15919,1.84853c-1.68048,0.42012 -3.44499,0.58817 -5.16748,0.58817l-8.0243,0l0,-21.84626zm5.83967,17.60305l2.31066,0c1.84853,0.12604 3.65505,-0.46213 5.04145,-1.68048c1.13433,-1.3864 1.80652,-3.1509 1.80652,-4.95742c0,-1.80652 -0.63018,-3.57102 -1.80652,-4.99943c-1.42841,-1.17634 -3.23493,-1.76451 -5.04145,-1.63847l-2.31066,0l0,13.27581zm0,0" class="st0"/>
   <path stroke="null" id="svg_10" fill="#eeeeee" clip-rule="evenodd" fill-rule="evenodd" d="m9.92748,6.12743l0,22.01431l6.84796,0l0,-7.98229l4.91541,0l1.76451,-4.78937l-6.67992,0l0,-4.41126l8.31839,0l1.72249,-4.83138l-16.88884,0zm0,0" class="st1"/>
   <rect stroke="null" id="svg_11" fill="#eeeeee" height="21.9723" width="6.84796" class="st0" y="6.12743" x="31.52167"/>
   <path stroke="null" id="svg_12" fill="#eeeeee" clip-rule="evenodd" fill-rule="evenodd" d="m45.72174,6.12743l0,22.01431l6.84796,0l0,-7.98229l4.91541,0l1.76451,-4.78937l-6.67991,0l0,-4.41126l8.27637,0l1.76451,-4.83138l-16.88884,0zm0,0" class="st1"/>
   <path stroke="null" id="svg_13" fill="#eeeeee" clip-rule="evenodd" fill-rule="evenodd" d="m84.83496,28.14174l-6.93199,0l-0.88225,-2.94084l-7.73022,0l-0.84024,2.94084l-6.6379,0l7.98229,-21.9723l7.10004,0l7.94028,21.9723zm-8.94856,-7.18406l-2.73078,-9.15863l-2.64676,9.15863l5.37754,0zm0,0" class="st1"/>
  </g>
 </g>
</svg>